<?xml version="1.0" encoding="utf-8"?>
<!-- Generator: Adobe Illustrator 23.0.6, SVG Export Plug-In . SVG Version: 6.00 Build 0)  -->
<svg version="1.1" id="レイヤー_1" xmlns="http://www.w3.org/2000/svg" xmlns:xlink="http://www.w3.org/1999/xlink" x="0px"
	 y="0px" viewBox="0 0 100 100" style="enable-background:new 0 0 100 100;" xml:space="preserve">
<style type="text/css">
	.st0{fill:#FFFFFF;}
</style>
<title>Ai</title>
<g>
	<path class="st0" d="M50,2c26.5,0,48,21.5,48,48S76.5,98,50,98S2,76.5,2,50S23.5,2,50,2 M50,0C22.4,0,0,22.4,0,50s22.4,50,50,50
		s50-22.4,50-50S77.6,0,50,0L50,0z"/>
</g>
<g>
	<polygon class="st0" points="40.3,50.7 47.1,50.7 43.6,39.4 	"/>
	<path class="st0" d="M71.5,16.9H28.5c-6.7,0-12.2,5.5-12.2,12.2v41.7c0,6.7,5.5,12.2,12.2,12.2h43.1c6.7,0,12.2-5.5,12.2-12.2V29.1
		C83.7,22.4,78.3,16.9,71.5,16.9z M51.1,63.7l-2.3-7.1H38.4l-2.2,7.1h-6.4l9.8-27.9v-2.1h7.9l10.6,30H51.1z M67.3,63.7H61V41.1h6.4
		V63.7z M64.1,38.7c-1.9,0-3.5-1.6-3.5-3.5s1.6-3.5,3.5-3.5s3.5,1.6,3.5,3.5S66.1,38.7,64.1,38.7z"/>
</g>
</svg>
