<?xml version="1.0" encoding="utf-8"?>
<!-- Generator: Adobe Illustrator 23.0.6, SVG Export Plug-In . SVG Version: 6.00 Build 0)  -->
<svg version="1.1" id="レイヤー_1" xmlns="http://www.w3.org/2000/svg" xmlns:xlink="http://www.w3.org/1999/xlink" x="0px"
	 y="0px" viewBox="0 0 100 100" style="enable-background:new 0 0 100 100;" xml:space="preserve">
<style type="text/css">
	.st0{fill:#FFFFFF;}
</style>
<title>css3</title>
<g>
	<path class="st0" d="M50,2c26.5,0,48,21.5,48,48S76.5,98,50,98S2,76.5,2,50S23.5,2,50,2 M50,0C22.4,0,0,22.4,0,50s22.4,50,50,50
		s50-22.4,50-50S77.6,0,50,0L50,0z"/>
</g>
<path class="st0" d="M49.9,20.2H19l5.6,62.9l25.3,7l25.3-7l5.6-62.9H49.9z M65.8,72.3L50,76.7l-15.8-4.4l-1.1-12.1l7.7,0l0.5,6.1
	l8.7,2.4l8.6-2.4l0.9-10l-26.8,0.1L32,48.6l28.1,0l0.8-7.9H31.3l-0.7-7.7l38.7,0L65.8,72.3z"/>
</svg>
