<?xml version="1.0" encoding="utf-8"?>
<!-- Generator: Adobe Illustrator 23.0.6, SVG Export Plug-In . SVG Version: 6.00 Build 0)  -->
<svg version="1.1" id="レイヤー_1" xmlns="http://www.w3.org/2000/svg" xmlns:xlink="http://www.w3.org/1999/xlink" x="0px"
	 y="0px" viewBox="0 0 100 100" style="enable-background:new 0 0 100 100;" xml:space="preserve">
<style type="text/css">
	.st0{fill:#FFFFFF;}
</style>
<title>html5</title>
<g>
	<path class="st0" d="M50,2c26.5,0,48,21.5,48,48S76.5,98,50,98S2,76.5,2,50S23.5,2,50,2 M50,0C22.4,0,0,22.4,0,50s22.4,50,50,50
		s50-22.4,50-50S77.6,0,50,0L50,0z"/>
</g>
<path class="st0" d="M49.9,20.2H19l5.6,62.9l25.3,7l25.3-7l5.6-62.9H49.9z M68.5,40.8l-29.5,0l0.7,7.9h28.1l-2.2,23.7l-15.8,4.4
	l-15.8-4.4l-1.1-12.1h7.8l0.5,6.2l8.6,2.3l8.6-2.3l0.9-10l-26.8-0.1l-2.1-23.4h38.7L68.5,40.8z"/>
</svg>
