<?xml version="1.0" encoding="utf-8"?>
<!-- Generator: Adobe Illustrator 23.0.6, SVG Export Plug-In . SVG Version: 6.00 Build 0)  -->
<svg version="1.1" id="レイヤー_1" xmlns="http://www.w3.org/2000/svg" xmlns:xlink="http://www.w3.org/1999/xlink" x="0px"
	 y="0px" viewBox="0 0 100 100" style="enable-background:new 0 0 100 100;" xml:space="preserve">
<style type="text/css">
	.st0{fill:#FFFFFF;}
</style>
<title>javascript</title>
<g>
	<path class="st0" d="M50,2c26.5,0,48,21.5,48,48S76.5,98,50,98S2,76.5,2,50S23.5,2,50,2 M50,0C22.4,0,0,22.4,0,50s22.4,50,50,50
		s50-22.4,50-50S77.6,0,50,0L50,0z"/>
</g>
<path class="st0" d="M80.4,17.3H19.6c-1.3,0-2.4,1.1-2.4,2.4v60.7c0,1.3,1.1,2.4,2.4,2.4h60.7c1.3,0,2.4-1.1,2.4-2.4V19.6
	C82.7,18.3,81.7,17.3,80.4,17.3z M52.9,70.6c0,0-0.8,6.7-8.8,6.9c-8,0.2-9.4-5.4-9.4-5.4l4.7-3c0,0,1.8,3.1,4.4,3.1
	c1.5,0,2.8-1,3-2.5l0.1-22.3h6V70.6z M68.2,77.5c-8.6,0-11.6-5.1-11.8-6.2l4.7-2.8c0,0,2.7,3.7,6.2,3.7c3.5,0,4.3-2.3,4.3-3.1
	c0-0.8,0.6-2-6.7-5c-5-2.1-6.5-5.1-6.5-8.8c0-3.8,2.2-8.6,8.7-8.6c3.6-0.1,7,1.9,8.8,5.1l-4.5,3.2c0,0-1.8-2.7-3.9-2.7
	c-1.6-0.1-3,1.1-3.1,2.7c0,1,0.4,2.2,2.4,3.1c2,0.9,8.3,3.4,9.5,5.7c1.2,2.2,1.6,3.5,1.5,5.2C77.5,70.6,76.8,77.5,68.2,77.5z"/>
</svg>
