<?xml version="1.0" encoding="utf-8"?>
<!-- Generator: Adobe Illustrator 23.0.6, SVG Export Plug-In . SVG Version: 6.00 Build 0)  -->
<svg version="1.1" id="レイヤー_1" xmlns="http://www.w3.org/2000/svg" xmlns:xlink="http://www.w3.org/1999/xlink" x="0px"
	 y="0px" viewBox="0 0 100 100" style="enable-background:new 0 0 100 100;" xml:space="preserve">
<style type="text/css">
	.st0{fill:#FFFFFF;}
</style>
<title>jQuery</title>
<g>
	<path class="st0" d="M50,2c26.5,0,48,21.5,48,48S76.5,98,50,98S2,76.5,2,50S23.5,2,50,2 M50,0C22.4,0,0,22.4,0,50s22.4,50,50,50
		s50-22.4,50-50S77.6,0,50,0L50,0z"/>
</g>
<path class="st0" d="M88.7,30.5c0,0-5.4,13.8-23.6,6.8c-3.7-1.6-5.9-4.4-8.1-7.9c-6.1-10.1,2.2-18.9,2.2-18.9s-4.1,13.7,6.5,20.6
	C74.2,36.9,83.5,36.5,88.7,30.5z"/>
<path class="st0" d="M90.8,44.9c-3.3,5.1-9.3,20-32.4,14.9c-8.1-2-15.6-9-19-14.7c-9.9-17.9,3.8-31.3,3.8-31.3
	c-5.5,11.2-2.1,25.3,10,34C67,56.4,80.6,56.6,90.8,44.9z"/>
<path class="st0" d="M88.7,64.2C85,71.6,74.8,89.3,44.3,83.4c-11.2-2.7-20.7-12-25.4-19.8c-15.3-25.5,4-42.3,4-42.3
	c-7.5,15.4-1.3,34.1,15.4,46C52.1,77.1,74.6,80.4,88.7,64.2z"/>
</svg>
