<?xml version="1.0" encoding="utf-8"?>
<!-- Generator: Adobe Illustrator 23.0.6, SVG Export Plug-In . SVG Version: 6.00 Build 0)  -->
<svg version="1.1" id="レイヤー_1" xmlns="http://www.w3.org/2000/svg" xmlns:xlink="http://www.w3.org/1999/xlink" x="0px"
	 y="0px" viewBox="0 0 100 100" style="enable-background:new 0 0 100 100;" xml:space="preserve">
<style type="text/css">
	.st0{fill:#FFFFFF;}
</style>
<title>Ps</title>
<g>
	<path class="st0" d="M50,2c26.5,0,48,21.5,48,48S76.5,98,50,98S2,76.5,2,50S23.5,2,50,2 M50,0C22.4,0,0,22.4,0,50s22.4,50,50,50
		s50-22.4,50-50S77.6,0,50,0L50,0z"/>
</g>
<g>
	<path class="st0" d="M71.5,16.9H28.5c-6.7,0-12.2,5.5-12.2,12.2v41.7c0,6.7,5.5,12.2,12.2,12.2h43.1c6.7,0,12.2-5.5,12.2-12.2V29.1
		C83.7,22.4,78.3,16.9,71.5,16.9z M37.5,54.2l-0.2,9.4h-6V33.9l8.4-0.2c0,0,13-1,13,10.5C52.2,54,43.7,54.5,37.5,54.2z M72.1,58
		c-0.2,3.4-3.7,5.2-3.7,5.2c-2.1,0.9-4.3,1.3-6.6,1.1c-4.3-0.1-6.2-1.5-6.2-1.5v-5.7c2.1,1.2,4.4,1.9,6.7,2c3.4,0,3.3-0.6,3.6-1.4
		c0.3-0.8-0.8-1.1-1.2-1.7c0,0-0.1-0.1-0.1-0.1c-0.2,0-1.1-0.3-4-1.7c-5.8-2.6-4.8-7.2-4.8-7.2c1.7-9.7,15.1-5.3,15.1-5.3v5.3
		c0,0.2-0.4,0.3-0.6,0.2c-1.1-0.5-2.2-0.8-3.3-1.1c-5.9-1-5.4,1.2-5.4,1.2c0.5,1.8,3.9,2.3,6.6,3.8C70.9,52.7,72.4,54.5,72.1,58z"/>
	<path class="st0" d="M37.5,39.4v9.5c0,0,9.4,1.3,9-4.9C46.5,37.7,37.5,39.4,37.5,39.4z"/>
</g>
</svg>
