<?xml version="1.0" encoding="utf-8"?>
<!-- Generator: Adobe Illustrator 23.0.6, SVG Export Plug-In . SVG Version: 6.00 Build 0)  -->
<svg version="1.1" id="レイヤー_1" xmlns="http://www.w3.org/2000/svg" xmlns:xlink="http://www.w3.org/1999/xlink" x="0px"
	 y="0px" viewBox="0 0 100 100" style="enable-background:new 0 0 100 100;" xml:space="preserve">
<style type="text/css">
	.st0{fill:#FFFFFF;}
</style>
<title>sass</title>
<g>
	<path class="st0" d="M50,2c26.5,0,48,21.5,48,48S76.5,98,50,98S2,76.5,2,50S23.5,2,50,2 M50,0C22.4,0,0,22.4,0,50s22.4,50,50,50
		s50-22.4,50-50S77.6,0,50,0L50,0z"/>
</g>
<path class="st0" d="M44.8,42.4c0.2,0.2,0.5,0.5,0.8,0.8c0.3,0.2,0.7,0.5,1,0.7c0.7,0.4,1.5,0.7,2.2,0.9c1.6,0.4,3.3,0.6,5,0.5
	c3.4-0.2,6.7-1.2,9.7-3c2.9-1.6,5.3-4,7.1-6.8c0.7-1.3,1.2-2.7,1.3-4.2c0-0.2,0-0.4,0-0.5v-0.3v-0.2c0-0.2-0.1-0.5-0.2-0.7
	c-0.2-0.5-0.5-0.9-0.8-1.3c-1-0.9-2.2-1.5-3.4-1.8c-1.5-0.4-3.1-0.6-4.7-0.5c-3.4,0.1-6.7,0.7-9.8,1.9c-3.2,1.2-6.3,2.7-9.2,4.6
	c-1.5,1-2.9,2-4.2,3.1l-1.1,0.8c-0.3,0.3-0.7,0.5-1,0.8c-0.6,0.5-1.2,1.1-1.8,1.7c-1,1-1.8,2.2-2.5,3.5c-0.3,0.6-0.4,1.2-0.6,1.8
	c-0.1,0.3-0.1,0.6-0.1,0.9c0,0.3,0,0.7,0,0.8c0.1,1.1,0.5,2.1,1.2,3c0.9,1.3,2,2.5,3.1,3.5c1.2,1.2,2.6,2.4,4,3.6l1.1,0.9
	c0.5,0.4,1,0.9,1.4,1.4c0.7,0.9,1.3,1.9,1.8,2.9c1,2,1.7,4.1,1.9,6.3c0.1,1.2,0,2.4-0.3,3.6c-0.3,1.1-0.8,2.2-1.4,3.1
	c-1.1,1.8-2.6,3.4-4.3,4.7c-0.9,0.6-1.8,1.2-2.7,1.7c-1,0.5-2.1,0.9-3.3,1.1c-1.5,0.2-3-0.1-4.3-0.8c-1.3-0.8-2.3-2-2.7-3.5
	c-0.3-1.3-0.3-2.7,0.1-4c0.3-1.2,0.9-2.2,1.6-3.2c0.7-0.9,1.4-1.7,2.3-2.4c0.8-0.7,1.6-1.3,2.4-1.9c1.5-1.2,3.2-2.3,5-3.3
	c1.8-1,3.6-1.7,5.6-2.2c1-0.3,2-0.4,3-0.6c0.5-0.1,1-0.1,1.5-0.1c0.5,0,1.1,0,1.6,0H51c1.8,0.1,3.7,0.5,5.4,1.1
	c1.9,0.6,3.5,1.7,4.8,3.2c0.6,0.8,1,1.8,1.2,2.8c0.2,1,0.1,2-0.1,3c-0.2,1-0.7,1.9-1.3,2.7c-0.3,0.4-0.6,0.7-1,1.1
	c-0.4,0.3-0.8,0.6-1.3,0.8c-0.5,0.3-1.1,0.1-1.4-0.4s-0.1-1.1,0.4-1.4h0.1c0.6-0.3,1.1-0.8,1.5-1.4c0.4-0.6,0.6-1.2,0.7-1.9
	c0.1-0.7,0.1-1.4,0-2.1c-0.2-0.6-0.5-1.2-0.9-1.7c-1-1-2.3-1.8-3.7-2.2c-1.5-0.4-3-0.7-4.6-0.7h-0.1c-0.3,0-0.8,0-1.2,0
	s-0.8,0.1-1.3,0.1c-0.9,0.1-1.7,0.3-2.5,0.6c-1.7,0.5-3.3,1.2-4.8,2.1c-1.5,0.9-2.9,2-4.2,3.2c-0.7,0.6-1.2,1.2-1.8,1.8
	c-0.5,0.6-0.9,1.3-1.2,2c-0.5,1.1-0.8,2.3-0.6,3.5c0,0.4,0.1,0.8,0.3,1.1c0.2,0.3,0.6,0.5,1,0.4c0.7-0.1,1.4-0.3,2.1-0.7
	c0.7-0.4,1.4-0.8,2-1.3c1.3-1,2.3-2.2,3.1-3.6c0.3-0.7,0.6-1.3,0.7-2.1c0.1-0.7,0.1-1.3-0.1-2c-0.3-1.5-1-2.9-1.9-4.1
	c-0.4-0.6-0.9-1.1-1.5-1.6c-0.2-0.2-0.4-0.3-0.7-0.5L37,61.3c-1.6-1-3.3-2-4.9-3.2c-1.8-1.3-3.4-2.8-4.8-4.5c-0.8-1-1.5-2.1-2-3.2
	c-0.6-1.3-0.9-2.7-1-4.1c0-0.7,0-1.3,0-2c0.1-0.6,0.1-1.3,0.3-1.9c0.3-1.2,0.7-2.4,1.3-3.5c1-2.1,2.4-4,4-5.7
	c0.8-0.8,1.6-1.5,2.4-2.1c0.4-0.3,0.8-0.6,1.2-1l1.2-0.9c1.6-1.2,3.2-2.4,4.9-3.4c3.4-2.1,7.1-3.8,11-5c4-1.3,8.1-1.8,12.3-1.7
	c2.2,0.1,4.3,0.5,6.4,1.2c2.3,0.7,4.4,2.1,6,3.9c1.4,1.6,2.2,3.5,2.3,5.6v0.5v0.4c0,0.3,0,0.6-0.1,0.9c-0.3,2.3-1.1,4.4-2.3,6.4
	c-2.4,3.5-5.6,6.3-9.4,8.1c-1.8,0.9-3.7,1.6-5.7,2.1c-2,0.5-4.1,0.7-6.1,0.7c-2.1-0.1-4.1-0.5-6.1-1.4c-1-0.4-1.9-1-2.7-1.7
	c-0.8-0.7-1.5-1.6-2-2.6c-0.2-0.5,0.1-1.1,0.6-1.3c0.3-0.1,0.7-0.1,1,0.2L44.8,42.4z"/>
</svg>
