<svg xmlns="http://www.w3.org/2000/svg" xmlns:xlink="http://www.w3.org/1999/xlink" viewBox="0 0 99.17 169.13"><defs><style>.cls-1{fill:url(#名称未設定グラデーション_18);}.cls-2{fill:#d3474a;}.cls-3{fill:#eae9e8;}.cls-4{fill:#7e7e80;}.cls-5{stroke:#838384;stroke-miterlimit:10;fill:url(#名称未設定グラデーション_7);}</style><linearGradient id="名称未設定グラデーション_18" x1="298.03" y1="484.4" x2="298.03" y2="520.79" gradientTransform="translate(596.06 872.44) rotate(180)" gradientUnits="userSpaceOnUse"><stop offset="0.03" stop-color="#2ea7e0"/><stop offset="1" stop-color="#fff" stop-opacity="0"/></linearGradient><linearGradient id="名称未設定グラデーション_7" x1="301.75" y1="429.42" x2="331.59" y2="429.42" gradientTransform="matrix(-0.77, -0.64, 0.64, -0.77, 18.79, 649.43)" gradientUnits="userSpaceOnUse"><stop offset="0" stop-color="#2ea7e0"/><stop offset="1" stop-color="#fff"/></linearGradient></defs><title>rocket</title><g id="レイヤー_2" data-name="レイヤー 2"><path class="cls-1" d="M287.6,369.85c0-10.05,10.43-18.2,10.43-18.2s10.43,8.15,10.43,18.2S303.79,388,298,388,287.6,379.89,287.6,369.85Z" transform="translate(-248.45 -351.65)"/></g><g id="レイヤー_1" data-name="レイヤー 1"><polygon class="cls-2" points="19.81 82.39 79.5 82.39 99.17 52.69 0 52.69 19.81 82.39"/><path class="cls-3" d="M286.12,393.87s-36.23,51.9-5.71,102.7h35.24c30.52-50.8-5.71-102.7-5.71-102.7H286.12Z" transform="translate(-248.45 -351.65)"/><path class="cls-2" d="M280.41,496.57C282.71,504,298,520.79,298,520.79s15.32-16.75,17.62-24.22Z" transform="translate(-248.45 -351.65)"/><polygon class="cls-4" points="49.59 30.55 29.43 30.55 37.67 42.22 49.59 42.22 61.5 42.22 69.75 30.55 49.59 30.55"/><circle class="cls-5" cx="49.59" cy="116.77" r="14.92"/></g></svg>